<svg xmlns="http://www.w3.org/2000/svg" viewBox="0 0 512 512">
  <defs>
    <linearGradient id="bg" x1="0%" y1="0%" x2="100%" y2="100%">
      <stop offset="0%" style="stop-color:#667eea"/>
      <stop offset="100%" style="stop-color:#764ba2"/>
    </linearGradient>
  </defs>
  <rect width="512" height="512" rx="80" fill="url(#bg)"/>
  <rect x="140" y="100" width="232" height="312" rx="16" fill="white" opacity="0.15"/>
  <rect x="156" y="116" width="200" height="280" rx="12" fill="white"/>
  <rect x="184" y="160" width="144" height="14" rx="7" fill="#667eea"/>
  <rect x="184" y="192" width="120" height="10" rx="5" fill="#764ba2" opacity="0.6"/>
  <rect x="184" y="220" width="130" height="10" rx="5" fill="#764ba2" opacity="0.6"/>
  <rect x="184" y="248" width="100" height="10" rx="5" fill="#764ba2" opacity="0.6"/>
  <line x1="184" y1="290" x2="328" y2="290" stroke="#eee" stroke-width="2"/>
  <rect x="184" y="308" width="80" height="10" rx="5" fill="#764ba2" opacity="0.4"/>
  <rect x="248" y="308" width="80" height="10" rx="5" fill="#667eea" opacity="0.8"/>
  <rect x="184" y="328" width="80" height="10" rx="5" fill="#764ba2" opacity="0.4"/>
  <rect x="248" y="328" width="80" height="10" rx="5" fill="#667eea" opacity="0.8"/>
  <rect x="184" y="354" width="144" height="16" rx="8" fill="#667eea"/>
</svg>
